<mxfile host="app.diagrams.net" modified="2024-02-22T00:11:23.855Z" agent="Mozilla/5.0 (Macintosh; Intel Mac OS X 10_15_7) AppleWebKit/605.1.15 (KHTML, like Gecko) Version/17.1 Safari/605.1.15" etag="qf2_MjiLm4MKcGUaGwQ9" version="23.1.5" type="github">
  <diagram name="Page-1" id="e7e014a7-5840-1c2e-5031-d8a46d1fe8dd">
    <mxGraphModel dx="729" dy="526" grid="1" gridSize="10" guides="1" tooltips="1" connect="1" arrows="1" fold="1" page="1" pageScale="1" pageWidth="1169" pageHeight="826" background="none" math="0" shadow="0">
      <root>
        <mxCell id="0" />
        <mxCell id="1" parent="0" />
        <mxCell id="2" value="Paciente" style="swimlane;whiteSpace=wrap" parent="1" vertex="1">
          <mxGeometry x="164.5" y="128" width="280" height="672" as="geometry" />
        </mxCell>
        <mxCell id="5" value="" style="ellipse;shape=startState;fillColor=#000000;strokeColor=#ff0000;" parent="2" vertex="1">
          <mxGeometry x="100" y="40" width="30" height="30" as="geometry" />
        </mxCell>
        <mxCell id="6" value="" style="edgeStyle=elbowEdgeStyle;elbow=horizontal;verticalAlign=bottom;endArrow=open;endSize=8;strokeColor=#FF0000;endFill=1;rounded=0" parent="2" source="5" target="7" edge="1">
          <mxGeometry x="100" y="40" as="geometry">
            <mxPoint x="115" y="110" as="targetPoint" />
          </mxGeometry>
        </mxCell>
        <mxCell id="7" value="Solicitar cita" style="" parent="2" vertex="1">
          <mxGeometry x="60" y="110" width="110" height="50" as="geometry" />
        </mxCell>
        <mxCell id="8" value="Rechazar paciente" style="" parent="2" vertex="1">
          <mxGeometry x="60" y="192" width="110" height="50" as="geometry" />
        </mxCell>
        <mxCell id="jID5A6P3H4yrA4cKDiPB-68" style="edgeStyle=orthogonalEdgeStyle;rounded=0;orthogonalLoop=1;jettySize=auto;html=1;" edge="1" parent="2" source="jID5A6P3H4yrA4cKDiPB-63" target="jID5A6P3H4yrA4cKDiPB-66">
          <mxGeometry relative="1" as="geometry" />
        </mxCell>
        <mxCell id="jID5A6P3H4yrA4cKDiPB-63" value="Entregar cita &#xa;a paciente" style="" vertex="1" parent="2">
          <mxGeometry x="85" y="517" width="110" height="50" as="geometry" />
        </mxCell>
        <mxCell id="jID5A6P3H4yrA4cKDiPB-66" value="" style="ellipse;html=1;shape=endState;fillColor=#000000;strokeColor=#ff0000;" vertex="1" parent="2">
          <mxGeometry x="125.5" y="602" width="30" height="30" as="geometry" />
        </mxCell>
        <mxCell id="3" value="GestiÃ³n Hospitalaria" style="swimlane;whiteSpace=wrap" parent="1" vertex="1">
          <mxGeometry x="444.5" y="128" width="295.5" height="672" as="geometry" />
        </mxCell>
        <mxCell id="jID5A6P3H4yrA4cKDiPB-45" style="edgeStyle=orthogonalEdgeStyle;rounded=0;orthogonalLoop=1;jettySize=auto;html=1;" edge="1" parent="3" source="15" target="21">
          <mxGeometry relative="1" as="geometry" />
        </mxCell>
        <mxCell id="15" value="Verificar datos del &#xa;paciente" style="" parent="3" vertex="1">
          <mxGeometry x="85.5" y="110" width="110" height="50" as="geometry" />
        </mxCell>
        <mxCell id="21" value="" style="rhombus;fillColor=#ffffc0;strokeColor=#ff0000;" parent="3" vertex="1">
          <mxGeometry x="100.5" y="197" width="80" height="40" as="geometry" />
        </mxCell>
        <mxCell id="23" value="Valido" style="edgeStyle=elbowEdgeStyle;elbow=horizontal;align=left;verticalAlign=top;endArrow=open;endSize=8;strokeColor=#FF0000;endFill=1;rounded=0" parent="3" source="21" target="30" edge="1">
          <mxGeometry x="-0.7917" y="5" relative="1" as="geometry">
            <mxPoint x="190" y="305" as="targetPoint" />
            <mxPoint as="offset" />
          </mxGeometry>
        </mxCell>
        <mxCell id="jID5A6P3H4yrA4cKDiPB-49" style="edgeStyle=orthogonalEdgeStyle;rounded=0;orthogonalLoop=1;jettySize=auto;html=1;" edge="1" parent="3" source="30" target="jID5A6P3H4yrA4cKDiPB-47">
          <mxGeometry relative="1" as="geometry" />
        </mxCell>
        <mxCell id="30" value="Verificar agenda &#xa;de citas" style="" parent="3" vertex="1">
          <mxGeometry x="85.5" y="285" width="110" height="50" as="geometry" />
        </mxCell>
        <mxCell id="jID5A6P3H4yrA4cKDiPB-50" style="edgeStyle=orthogonalEdgeStyle;rounded=0;orthogonalLoop=1;jettySize=auto;html=1;entryX=1;entryY=0.5;entryDx=0;entryDy=0;" edge="1" parent="3" source="jID5A6P3H4yrA4cKDiPB-47" target="30">
          <mxGeometry relative="1" as="geometry">
            <Array as="points">
              <mxPoint x="236" y="382" />
              <mxPoint x="236" y="310" />
            </Array>
          </mxGeometry>
        </mxCell>
        <mxCell id="jID5A6P3H4yrA4cKDiPB-51" value="No disponible" style="edgeLabel;html=1;align=center;verticalAlign=middle;resizable=0;points=[];" vertex="1" connectable="0" parent="jID5A6P3H4yrA4cKDiPB-50">
          <mxGeometry x="0.0536" y="-3" relative="1" as="geometry">
            <mxPoint x="1" y="1" as="offset" />
          </mxGeometry>
        </mxCell>
        <mxCell id="jID5A6P3H4yrA4cKDiPB-54" style="edgeStyle=orthogonalEdgeStyle;rounded=0;orthogonalLoop=1;jettySize=auto;html=1;" edge="1" parent="3" source="jID5A6P3H4yrA4cKDiPB-47" target="jID5A6P3H4yrA4cKDiPB-52">
          <mxGeometry relative="1" as="geometry" />
        </mxCell>
        <mxCell id="jID5A6P3H4yrA4cKDiPB-55" value="Disponible" style="edgeLabel;html=1;align=center;verticalAlign=middle;resizable=0;points=[];" vertex="1" connectable="0" parent="jID5A6P3H4yrA4cKDiPB-54">
          <mxGeometry x="0.0952" y="3" relative="1" as="geometry">
            <mxPoint x="-43" y="-3" as="offset" />
          </mxGeometry>
        </mxCell>
        <mxCell id="jID5A6P3H4yrA4cKDiPB-47" value="" style="rhombus;fillColor=#ffffc0;strokeColor=#ff0000;" vertex="1" parent="3">
          <mxGeometry x="100.5" y="362" width="80" height="40" as="geometry" />
        </mxCell>
        <mxCell id="jID5A6P3H4yrA4cKDiPB-57" style="edgeStyle=orthogonalEdgeStyle;rounded=0;orthogonalLoop=1;jettySize=auto;html=1;" edge="1" parent="3" source="jID5A6P3H4yrA4cKDiPB-52" target="jID5A6P3H4yrA4cKDiPB-56">
          <mxGeometry relative="1" as="geometry" />
        </mxCell>
        <mxCell id="jID5A6P3H4yrA4cKDiPB-52" value="Agendar cita" style="" vertex="1" parent="3">
          <mxGeometry x="85.5" y="440" width="110" height="50" as="geometry" />
        </mxCell>
        <mxCell id="jID5A6P3H4yrA4cKDiPB-58" style="edgeStyle=orthogonalEdgeStyle;rounded=0;orthogonalLoop=1;jettySize=auto;html=1;entryX=1;entryY=0.5;entryDx=0;entryDy=0;" edge="1" parent="3" source="jID5A6P3H4yrA4cKDiPB-56" target="30">
          <mxGeometry relative="1" as="geometry">
            <Array as="points">
              <mxPoint x="276" y="542" />
              <mxPoint x="276" y="310" />
            </Array>
          </mxGeometry>
        </mxCell>
        <mxCell id="jID5A6P3H4yrA4cKDiPB-59" value="Paciente no &lt;br&gt;acepta" style="edgeLabel;html=1;align=center;verticalAlign=middle;resizable=0;points=[];" vertex="1" connectable="0" parent="jID5A6P3H4yrA4cKDiPB-58">
          <mxGeometry x="-0.8088" y="-1" relative="1" as="geometry">
            <mxPoint x="6" y="-21" as="offset" />
          </mxGeometry>
        </mxCell>
        <mxCell id="jID5A6P3H4yrA4cKDiPB-61" style="edgeStyle=orthogonalEdgeStyle;rounded=0;orthogonalLoop=1;jettySize=auto;html=1;" edge="1" parent="3" source="jID5A6P3H4yrA4cKDiPB-56" target="jID5A6P3H4yrA4cKDiPB-60">
          <mxGeometry relative="1" as="geometry" />
        </mxCell>
        <mxCell id="jID5A6P3H4yrA4cKDiPB-62" value="Paciente no&lt;br&gt;acepta" style="edgeLabel;html=1;align=center;verticalAlign=middle;resizable=0;points=[];" vertex="1" connectable="0" parent="jID5A6P3H4yrA4cKDiPB-61">
          <mxGeometry x="0.1" y="-1" relative="1" as="geometry">
            <mxPoint x="41" y="-2" as="offset" />
          </mxGeometry>
        </mxCell>
        <mxCell id="jID5A6P3H4yrA4cKDiPB-56" value="" style="rhombus;fillColor=#ffffc0;strokeColor=#ff0000;" vertex="1" parent="3">
          <mxGeometry x="100.5" y="522" width="80" height="40" as="geometry" />
        </mxCell>
        <mxCell id="jID5A6P3H4yrA4cKDiPB-60" value="Eliminar cita" style="" vertex="1" parent="3">
          <mxGeometry x="85.5" y="602" width="110" height="50" as="geometry" />
        </mxCell>
        <mxCell id="jID5A6P3H4yrA4cKDiPB-41" style="edgeStyle=orthogonalEdgeStyle;rounded=0;orthogonalLoop=1;jettySize=auto;html=1;" edge="1" parent="1" source="7" target="15">
          <mxGeometry relative="1" as="geometry" />
        </mxCell>
        <mxCell id="jID5A6P3H4yrA4cKDiPB-44" style="edgeStyle=orthogonalEdgeStyle;rounded=0;orthogonalLoop=1;jettySize=auto;html=1;" edge="1" parent="1" source="21" target="8">
          <mxGeometry relative="1" as="geometry" />
        </mxCell>
        <mxCell id="jID5A6P3H4yrA4cKDiPB-46" value="No valido" style="edgeLabel;html=1;align=center;verticalAlign=middle;resizable=0;points=[];" vertex="1" connectable="0" parent="jID5A6P3H4yrA4cKDiPB-44">
          <mxGeometry x="-0.2494" y="1" relative="1" as="geometry">
            <mxPoint x="14" y="-16" as="offset" />
          </mxGeometry>
        </mxCell>
        <mxCell id="jID5A6P3H4yrA4cKDiPB-64" style="edgeStyle=orthogonalEdgeStyle;rounded=0;orthogonalLoop=1;jettySize=auto;html=1;" edge="1" parent="1" source="jID5A6P3H4yrA4cKDiPB-56" target="jID5A6P3H4yrA4cKDiPB-63">
          <mxGeometry relative="1" as="geometry" />
        </mxCell>
        <mxCell id="jID5A6P3H4yrA4cKDiPB-65" value="Paciente acepta" style="edgeLabel;html=1;align=center;verticalAlign=middle;resizable=0;points=[];" vertex="1" connectable="0" parent="jID5A6P3H4yrA4cKDiPB-64">
          <mxGeometry x="-0.3281" relative="1" as="geometry">
            <mxPoint x="-38" y="20" as="offset" />
          </mxGeometry>
        </mxCell>
      </root>
    </mxGraphModel>
  </diagram>
</mxfile>
